<?xml version="1.0" standalone="no"?>
<!DOCTYPE svg PUBLIC "-//W3C//DTD SVG 20010904//EN"
 "http://www.w3.org/TR/2001/REC-SVG-20010904/DTD/svg10.dtd">
<svg version="1.0" xmlns="http://www.w3.org/2000/svg"
 width="594.000000pt" height="594.000000pt" viewBox="0 0 594.000000 594.000000"
 preserveAspectRatio="xMidYMid meet">
<metadata>
Created by potrace 1.14, written by Peter Selinger 2001-2017
</metadata>
<g transform="translate(0.000000,594.000000) scale(0.100000,-0.100000)"
fill="#000000" stroke="none">
<path d="M2705 5772 c-55 -11 -208 -67 -270 -99 -280 -144 -498 -402 -583
-688 -90 -308 -60 -596 96 -910 147 -297 504 -840 841 -1280 114 -149 180
-225 197 -225 44 0 479 590 766 1040 207 326 301 499 353 655 24 70 68 266 61
272 -2 2 -265 -98 -333 -127 -13 -5 -23 -16 -23 -23 0 -20 -76 -172 -112 -225
-105 -154 -298 -287 -488 -339 -102 -28 -350 -25 -452 5 -223 66 -404 203
-513 389 -84 144 -116 262 -116 432 0 332 196 631 506 772 l61 27 17 162 c10
90 16 164 15 165 -2 1 -12 0 -23 -3z"/>
<path d="M2842 4757 c-156 -45 -283 -86 -282 -92 1 -5 68 -33 148 -61 l147
-51 56 -157 c31 -86 59 -159 61 -161 2 -3 43 133 89 300 47 168 81 305 75 304
-6 0 -138 -37 -294 -82z"/>
<path d="M1274 2073 c12 -42 149 -671 160 -738 14 -81 0 -75 170 -75 l154 0
32 118 c18 64 48 173 66 242 l32 124 7 -49 c4 -28 22 -133 41 -235 19 -101 34
-188 34 -192 0 -5 73 -7 161 -6 l162 3 133 400 c74 219 134 405 134 412 0 11
-26 13 -122 11 -120 -3 -121 -3 -129 -28 -38 -127 -152 -489 -158 -504 -7 -19
-20 54 -77 427 l-17 107 -142 0 -141 0 -69 -276 c-38 -152 -71 -272 -73 -266
-2 6 -27 129 -56 274 l-54 263 -127 3 c-117 2 -126 1 -121 -15z"/>
<path d="M3039 2088 c0 -2 -3 -73 -5 -158 -5 -187 -22 -533 -31 -612 l-6 -58
142 0 141 0 0 133 c0 135 14 467 26 615 l7 82 -137 0 c-75 0 -136 -1 -137 -2z"/>
<path d="M3830 2003 c0 -95 -26 -578 -36 -680 l-6 -63 119 0 120 0 7 61 c3 34
6 105 6 158 0 53 3 140 7 194 l6 99 33 -59 c18 -32 84 -147 146 -255 l113
-198 155 3 155 2 2 80 c4 125 33 634 40 693 l6 52 -121 0 -120 0 -6 -102 c-3
-57 -9 -175 -12 -262 -5 -123 -9 -155 -17 -140 -6 10 -71 127 -144 259 l-132
240 -160 3 -161 2 0 -87z"/>
<path d="M2636 1419 c-3 -34 -6 -84 -6 -110 l0 -49 114 0 113 0 7 53 c3 28 6
78 6 110 l0 57 -114 0 -113 0 -7 -61z"/>
<path d="M3427 1418 c-4 -29 -7 -77 -7 -105 l0 -53 114 0 114 0 7 73 c4 39 5
86 3 102 l-3 30 -111 3 -111 3 -6 -53z"/>
<path d="M860 988 c0 -2 22 -104 49 -228 l48 -225 86 -3 86 -3 15 53 c9 29 24
85 34 123 l19 70 11 -50 c5 -27 16 -83 23 -122 l12 -73 91 0 91 1 70 215 c39
118 71 221 73 229 3 12 -10 15 -65 15 l-68 0 -45 -144 c-25 -79 -47 -143 -48
-141 -2 2 -14 66 -26 142 l-22 138 -79 3 -80 3 -35 -141 c-18 -77 -37 -137
-40 -133 -4 5 -17 60 -29 123 -32 165 -22 150 -102 150 -38 0 -69 -1 -69 -2z"/>
<path d="M1616 814 c-3 -98 -9 -201 -12 -230 l-7 -54 72 0 71 0 0 43 c0 69 18
158 36 178 10 11 30 19 46 19 47 0 53 -38 32 -202 l-4 -38 73 0 74 0 7 128 c7
149 1 180 -42 205 -43 25 -132 25 -175 -1 l-32 -18 3 73 4 73 -70 0 -69 0 -7
-176z"/>
<path d="M2956 808 c-3 -101 -9 -204 -13 -230 l-6 -48 80 0 80 0 7 215 c3 119
7 221 9 228 1 8 -21 13 -74 15 l-76 3 -7 -183z"/>
<path d="M3366 918 c-3 -40 -8 -131 -11 -203 -3 -71 -8 -142 -11 -157 l-6 -28
71 0 71 0 0 53 c0 28 3 89 7 134 l6 83 76 -133 77 -132 85 -3 86 -3 6 83 c4
46 10 141 13 211 4 70 7 136 8 145 1 14 -10 17 -65 20 l-66 3 -8 -142 -7 -142
-77 141 -76 142 -87 0 -86 0 -6 -72z"/>
<path d="M4960 935 l0 -55 -67 0 c-119 0 -188 -64 -199 -182 -13 -131 106
-217 219 -159 29 15 37 16 37 5 0 -11 16 -14 64 -14 l64 0 7 138 c4 75 10 177
14 225 4 48 5 90 2 92 -2 3 -35 5 -73 5 l-68 0 0 -55z m-8 -150 c10 -11 -11
-118 -28 -136 -52 -57 -119 17 -81 91 18 36 89 65 109 45z"/>
<path d="M2573 947 c-37 -8 -42 -13 -45 -41 -2 -25 -8 -32 -30 -34 -25 -3 -28
-7 -28 -43 0 -21 -1 -42 -2 -46 -2 -5 8 -9 22 -11 25 -3 25 -4 22 -89 -2 -47
-1 -96 2 -109 11 -44 82 -64 164 -48 31 6 35 12 47 71 6 31 5 32 -32 35 l-38
3 -3 68 -3 67 41 0 40 0 0 50 0 50 -35 0 c-35 0 -35 0 -35 45 0 50 -5 52 -87
32z"/>
<path d="M2155 873 c-37 -5 -55 -27 -55 -69 l0 -33 41 14 c45 16 125 20 133 7
10 -17 -12 -32 -69 -46 -86 -20 -110 -31 -134 -62 -40 -50 -18 -133 40 -153
36 -13 115 -15 123 -3 2 4 7 23 11 43 6 35 5 36 -17 32 -14 -3 -29 2 -36 10
-16 18 10 42 56 52 l33 7 -7 -71 -7 -71 70 0 70 0 7 141 c8 155 1 180 -50 199
-25 10 -149 11 -209 3z"/>
<path d="M4000 873 c-68 -26 -109 -95 -110 -184 0 -62 22 -105 73 -143 25 -18
43 -21 132 -21 57 0 108 5 114 10 5 6 12 31 16 57 l7 47 -33 -10 c-87 -25
-169 -5 -169 43 0 16 10 18 115 18 l115 0 0 43 c0 97 -60 148 -175 146 -38 0
-77 -3 -85 -6z m114 -89 c31 -30 20 -44 -34 -44 -54 0 -58 4 -34 38 18 26 46
28 68 6z"/>
<path d="M4378 860 c-51 -27 -80 -78 -85 -153 -3 -52 0 -69 19 -101 38 -65 76
-81 195 -81 56 0 104 3 107 5 2 3 8 29 12 57 l6 52 -33 -10 c-84 -24 -169 -3
-169 41 0 19 7 20 115 20 l115 0 0 48 c0 59 -29 108 -75 128 -50 21 -162 18
-207 -6z m140 -72 c7 -7 12 -20 12 -30 0 -15 -8 -18 -44 -18 -53 0 -64 12 -36
40 23 23 50 26 68 8z"/>
</g>
</svg>
